<svg width="353" height="78" viewBox="0 0 353 78" fill="none" xmlns="http://www.w3.org/2000/svg">
<path d="M70.872 7.608V74.04H62.136V24.504L40.056 74.04H33.912L11.736 24.408V74.04H3V7.608H12.408L36.984 62.52L61.56 7.608H70.872Z" stroke="white" stroke-width="5" stroke-linejoin="round"/>
<path d="M108.632 74.904C103.703 74.904 99.2235 73.784 95.1915 71.544C91.2235 69.304 88.0875 66.136 85.7835 62.04C83.5435 57.88 82.4235 53.08 82.4235 47.64C82.4235 42.264 83.5755 37.528 85.8795 33.432C88.2475 29.272 91.4475 26.104 95.4795 23.928C99.5115 21.688 104.024 20.568 109.016 20.568C114.008 20.568 118.52 21.688 122.552 23.928C126.584 26.104 129.751 29.24 132.055 33.336C134.423 37.432 135.607 42.2 135.607 47.64C135.607 53.08 134.392 57.88 131.96 62.04C129.592 66.136 126.36 69.304 122.264 71.544C118.168 73.784 113.624 74.904 108.632 74.904ZM108.632 67.224C111.767 67.224 114.712 66.488 117.464 65.016C120.216 63.544 122.424 61.336 124.088 58.392C125.816 55.448 126.68 51.864 126.68 47.64C126.68 43.416 125.848 39.832 124.184 36.888C122.52 33.944 120.344 31.768 117.656 30.36C114.968 28.888 112.056 28.152 108.92 28.152C105.72 28.152 102.776 28.888 100.088 30.36C97.4635 31.768 95.3515 33.944 93.7515 36.888C92.1515 39.832 91.3515 43.416 91.3515 47.64C91.3515 51.928 92.1195 55.544 93.6555 58.488C95.2555 61.432 97.3675 63.64 99.9915 65.112C102.616 66.52 105.496 67.224 108.632 67.224Z" stroke="white" stroke-width="5" stroke-linejoin="round"/>
<path d="M172.726 20.472C179.126 20.472 184.31 22.424 188.278 26.328C192.246 30.168 194.23 35.736 194.23 43.032V74.04H185.59V44.28C185.59 39.032 184.278 35.032 181.654 32.28C179.03 29.464 175.446 28.056 170.902 28.056C166.294 28.056 162.614 29.496 159.862 32.376C157.174 35.256 155.83 39.448 155.83 44.952V74.04H147.094V21.432H155.83V28.92C157.558 26.232 159.894 24.152 162.838 22.68C165.846 21.208 169.142 20.472 172.726 20.472Z" stroke="white" stroke-width="5" stroke-linejoin="round"/>
<path d="M205.236 47.544C205.236 42.168 206.324 37.464 208.5 33.432C210.676 29.336 213.652 26.168 217.428 23.928C221.268 21.688 225.524 20.568 230.196 20.568C234.804 20.568 238.804 21.56 242.196 23.544C245.588 25.528 248.116 28.024 249.78 31.032V21.432H258.612V74.04H249.78V64.248C248.052 67.32 245.46 69.88 242.004 71.928C238.612 73.912 234.644 74.904 230.1 74.904C225.428 74.904 221.204 73.752 217.428 71.448C213.652 69.144 210.676 65.912 208.5 61.752C206.324 57.592 205.236 52.856 205.236 47.544ZM249.78 47.64C249.78 43.672 248.98 40.216 247.38 37.272C245.78 34.328 243.604 32.088 240.852 30.552C238.164 28.952 235.188 28.152 231.924 28.152C228.66 28.152 225.684 28.92 222.996 30.456C220.308 31.992 218.164 34.232 216.564 37.176C214.964 40.12 214.164 43.576 214.164 47.544C214.164 51.576 214.964 55.096 216.564 58.104C218.164 61.048 220.308 63.32 222.996 64.92C225.684 66.456 228.66 67.224 231.924 67.224C235.188 67.224 238.164 66.456 240.852 64.92C243.604 63.32 245.78 61.048 247.38 58.104C248.98 55.096 249.78 51.608 249.78 47.64Z" stroke="white" stroke-width="5" stroke-linejoin="round"/>
<path d="M282.111 29.976C283.647 26.968 285.823 24.632 288.639 22.968C291.519 21.304 295.007 20.472 299.103 20.472V29.496H296.799C287.007 29.496 282.111 34.808 282.111 45.432V74.04H273.375V21.432H282.111V29.976Z" stroke="white" stroke-width="5" stroke-linejoin="round"/>
<path d="M338.564 74.04L317.923 50.808V74.04H309.188V3H317.923V44.76L338.18 21.432H350.371L325.604 47.64L350.467 74.04H338.564Z" stroke="white" stroke-width="5" stroke-linejoin="round"/>
</svg>
