<svg width="989" height="156" viewBox="0 0 989 156" fill="none" xmlns="http://www.w3.org/2000/svg" style="">
<mask id="path-1-outside-1" maskUnits="userSpaceOnUse" x="0.0880127" y="0.440002" width="989" height="156" fill="black">
<path fill="white" width="989" height="156" d="M0.0880127 0.440002 L989.0880127 0.440002 L989.0880127 156.440002 L0.0880127 156.440002 Z" class="UxshjAwi_0"></path>
<path d="M106.896 12.352V112H93.792V37.696L60.672 112H51.456L18.192 37.552V112H5.08801V12.352H19.2L56.064 94.72L92.928 12.352H106.896Z" class="UxshjAwi_1"></path>
<path d="M163.535 113.296C156.143 113.296 149.423 111.616 143.375 108.256C137.423 104.896 132.719 100.144 129.263 94C125.903 87.76 124.223 80.56 124.223 72.4C124.223 64.336 125.951 57.232 129.407 51.088C132.959 44.848 137.759 40.096 143.807 36.832C149.855 33.472 156.623 31.792 164.111 31.792C171.599 31.792 178.367 33.472 184.415 36.832C190.463 40.096 195.215 44.8 198.671 50.944C202.223 57.088 203.999 64.24 203.999 72.4C203.999 80.56 202.175 87.76 198.527 94C194.975 100.144 190.127 104.896 183.983 108.256C177.839 111.616 171.023 113.296 163.535 113.296ZM163.535 101.776C168.239 101.776 172.655 100.672 176.783 98.464C180.911 96.256 184.223 92.944 186.719 88.528C189.311 84.112 190.607 78.736 190.607 72.4C190.607 66.064 189.359 60.688 186.863 56.272C184.367 51.856 181.103 48.592 177.071 46.48C173.039 44.272 168.671 43.168 163.967 43.168C159.167 43.168 154.751 44.272 150.719 46.48C146.783 48.592 143.615 51.856 141.215 56.272C138.815 60.688 137.615 66.064 137.615 72.4C137.615 78.832 138.767 84.256 141.071 88.672C143.471 93.088 146.639 96.4 150.575 98.608C154.511 100.72 158.831 101.776 163.535 101.776Z" class="UxshjAwi_2"></path>
<path d="M259.677 31.648C269.277 31.648 277.053 34.576 283.005 40.432C288.957 46.192 291.933 54.544 291.933 65.488V112H278.973V67.36C278.973 59.488 277.005 53.488 273.069 49.36C269.133 45.136 263.757 43.024 256.941 43.024C250.029 43.024 244.509 45.184 240.381 49.504C236.349 53.824 234.333 60.112 234.333 68.368V112H221.229V33.088H234.333V44.32C236.925 40.288 240.429 37.168 244.845 34.96C249.357 32.752 254.301 31.648 259.677 31.648Z" class="UxshjAwi_3"></path>
<path d="M308.442 72.256C308.442 64.192 310.074 57.136 313.338 51.088C316.602 44.944 321.066 40.192 326.73 36.832C332.49 33.472 338.874 31.792 345.882 31.792C352.794 31.792 358.794 33.28 363.882 36.256C368.97 39.232 372.762 42.976 375.258 47.488V33.088H388.506V112H375.258V97.312C372.666 101.92 368.778 105.76 363.594 108.832C358.506 111.808 352.554 113.296 345.738 113.296C338.73 113.296 332.394 111.568 326.73 108.112C321.066 104.656 316.602 99.808 313.338 93.568C310.074 87.328 308.442 80.224 308.442 72.256ZM375.258 72.4C375.258 66.448 374.058 61.264 371.658 56.848C369.258 52.432 365.994 49.072 361.866 46.768C357.834 44.368 353.37 43.168 348.474 43.168C343.578 43.168 339.114 44.32 335.082 46.624C331.05 48.928 327.834 52.288 325.434 56.704C323.034 61.12 321.834 66.304 321.834 72.256C321.834 78.304 323.034 83.584 325.434 88.096C327.834 92.512 331.05 95.92 335.082 98.32C339.114 100.624 343.578 101.776 348.474 101.776C353.37 101.776 357.834 100.624 361.866 98.32C365.994 95.92 369.258 92.512 371.658 88.096C374.058 83.584 375.258 78.352 375.258 72.4Z" class="UxshjAwi_4"></path>
<path d="M423.755 45.904C426.059 41.392 429.323 37.888 433.547 35.392C437.867 32.896 443.098 31.648 449.242 31.648V45.184H445.786C431.098 45.184 423.755 53.152 423.755 69.088V112H410.651V33.088H423.755V45.904Z" class="UxshjAwi_5"></path>
<path d="M508.433 112L477.473 77.152V112H464.369V5.44H477.473V68.08L507.857 33.088H526.145L488.993 72.4L526.289 112H508.433Z" class="UxshjAwi_6"></path>
<path d="M540.495 11.632H555.039L541.215 44.32H531.999L540.495 11.632Z" class="UxshjAwi_7"></path>
<path d="M597.915 113.296C591.867 113.296 586.443 112.288 581.643 110.272C576.843 108.16 573.051 105.28 570.267 101.632C567.483 97.888 565.947 93.616 565.659 88.816H579.195C579.579 92.752 581.403 95.968 584.667 98.464C588.027 100.96 592.395 102.208 597.771 102.208C602.763 102.208 606.699 101.104 609.579 98.896C612.459 96.688 613.899 93.904 613.899 90.544C613.899 87.088 612.363 84.544 609.291 82.912C606.219 81.184 601.467 79.504 595.035 77.872C589.179 76.336 584.379 74.8 580.635 73.264C576.987 71.632 573.819 69.28 571.131 66.208C568.539 63.04 567.243 58.912 567.243 53.824C567.243 49.792 568.443 46.096 570.843 42.736C573.243 39.376 576.651 36.736 581.067 34.816C585.483 32.8 590.523 31.792 596.187 31.792C604.923 31.792 611.979 34 617.355 38.416C622.731 42.832 625.611 48.88 625.995 56.56H612.891C612.603 52.432 610.923 49.12 607.851 46.624C604.875 44.128 600.843 42.88 595.755 42.88C591.051 42.88 587.307 43.888 584.523 45.904C581.739 47.92 580.347 50.56 580.347 53.824C580.347 56.416 581.163 58.576 582.795 60.304C584.523 61.936 586.635 63.28 589.131 64.336C591.723 65.296 595.275 66.4 599.787 67.648C605.451 69.184 610.059 70.72 613.611 72.256C617.163 73.696 620.187 75.904 622.683 78.88C625.275 81.856 626.619 85.744 626.715 90.544C626.715 94.864 625.515 98.752 623.115 102.208C620.715 105.664 617.307 108.4 612.891 110.416C608.571 112.336 603.579 113.296 597.915 113.296Z" class="UxshjAwi_8"></path>
<path d="M696.708 47.776C699.396 43.072 703.332 39.232 708.516 36.256C713.7 33.28 719.604 31.792 726.228 31.792C733.332 31.792 739.716 33.472 745.38 36.832C751.044 40.192 755.508 44.944 758.772 51.088C762.036 57.136 763.668 64.192 763.668 72.256C763.668 80.224 762.036 87.328 758.772 93.568C755.508 99.808 750.996 104.656 745.236 108.112C739.572 111.568 733.236 113.296 726.228 113.296C719.412 113.296 713.412 111.808 708.228 108.832C703.14 105.856 699.3 102.064 696.708 97.456V112H683.604V5.44H696.708V47.776ZM750.276 72.256C750.276 66.304 749.076 61.12 746.676 56.704C744.276 52.288 741.012 48.928 736.884 46.624C732.852 44.32 728.388 43.168 723.492 43.168C718.692 43.168 714.228 44.368 710.1 46.768C706.068 49.072 702.804 52.48 700.308 56.992C697.908 61.408 696.708 66.544 696.708 72.4C696.708 78.352 697.908 83.584 700.308 88.096C702.804 92.512 706.068 95.92 710.1 98.32C714.228 100.624 718.692 101.776 723.492 101.776C728.388 101.776 732.852 100.624 736.884 98.32C741.012 95.92 744.276 92.512 746.676 88.096C749.076 83.584 750.276 78.304 750.276 72.256Z" class="UxshjAwi_9"></path>
<path d="M794.02 5.44V112H780.916V5.44H794.02Z" class="UxshjAwi_10"></path>
<path d="M850.77 113.296C843.378 113.296 836.658 111.616 830.61 108.256C824.658 104.896 819.954 100.144 816.498 94C813.138 87.76 811.458 80.56 811.458 72.4C811.458 64.336 813.186 57.232 816.642 51.088C820.194 44.848 824.994 40.096 831.042 36.832C837.09 33.472 843.858 31.792 851.346 31.792C858.834 31.792 865.602 33.472 871.65 36.832C877.698 40.096 882.45 44.8 885.906 50.944C889.458 57.088 891.234 64.24 891.234 72.4C891.234 80.56 889.41 87.76 885.762 94C882.21 100.144 877.362 104.896 871.218 108.256C865.074 111.616 858.258 113.296 850.77 113.296ZM850.77 101.776C855.474 101.776 859.89 100.672 864.018 98.464C868.146 96.256 871.458 92.944 873.954 88.528C876.546 84.112 877.842 78.736 877.842 72.4C877.842 66.064 876.594 60.688 874.098 56.272C871.602 51.856 868.338 48.592 864.306 46.48C860.274 44.272 855.906 43.168 851.202 43.168C846.402 43.168 841.986 44.272 837.954 46.48C834.018 48.592 830.85 51.856 828.45 56.272C826.05 60.688 824.85 66.064 824.85 72.4C824.85 78.832 826.002 84.256 828.306 88.672C830.706 93.088 833.874 96.4 837.81 98.608C841.746 100.72 846.066 101.776 850.77 101.776Z" class="UxshjAwi_11"></path>
<path d="M941.007 31.792C947.823 31.792 953.775 33.28 958.863 36.256C964.047 39.232 967.887 42.976 970.383 47.488V33.088H983.631V113.728C983.631 120.928 982.095 127.312 979.023 132.88C975.951 138.544 971.535 142.96 965.775 146.128C960.111 149.296 953.487 150.88 945.903 150.88C935.535 150.88 926.895 148.432 919.983 143.536C913.071 138.64 908.991 131.968 907.743 123.52H920.703C922.143 128.32 925.119 132.16 929.631 135.04C934.143 138.016 939.567 139.504 945.903 139.504C953.103 139.504 958.959 137.248 963.471 132.736C968.079 128.224 970.383 121.888 970.383 113.728V97.168C967.791 101.776 963.951 105.616 958.863 108.688C953.775 111.76 947.823 113.296 941.007 113.296C933.999 113.296 927.615 111.568 921.855 108.112C916.191 104.656 911.727 99.808 908.463 93.568C905.199 87.328 903.567 80.224 903.567 72.256C903.567 64.192 905.199 57.136 908.463 51.088C911.727 44.944 916.191 40.192 921.855 36.832C927.615 33.472 933.999 31.792 941.007 31.792ZM970.383 72.4C970.383 66.448 969.183 61.264 966.783 56.848C964.383 52.432 961.119 49.072 956.991 46.768C952.959 44.368 948.495 43.168 943.599 43.168C938.703 43.168 934.239 44.32 930.207 46.624C926.175 48.928 922.959 52.288 920.559 56.704C918.159 61.12 916.959 66.304 916.959 72.256C916.959 78.304 918.159 83.584 920.559 88.096C922.959 92.512 926.175 95.92 930.207 98.32C934.239 100.624 938.703 101.776 943.599 101.776C948.495 101.776 952.959 100.624 956.991 98.32C961.119 95.92 964.383 92.512 966.783 88.096C969.183 83.584 970.383 78.352 970.383 72.4Z" class="UxshjAwi_12"></path>
</mask>
<path d="M106.896 12.352V112H93.792V37.696L60.672 112H51.456L18.192 37.552V112H5.08801V12.352H19.2L56.064 94.72L92.928 12.352H106.896Z" stroke="white" stroke-width="10" stroke-linecap="round" stroke-linejoin="round" mask="url(#path-1-outside-1)" class="UxshjAwi_13"></path>
<path d="M163.535 113.296C156.143 113.296 149.423 111.616 143.375 108.256C137.423 104.896 132.719 100.144 129.263 94C125.903 87.76 124.223 80.56 124.223 72.4C124.223 64.336 125.951 57.232 129.407 51.088C132.959 44.848 137.759 40.096 143.807 36.832C149.855 33.472 156.623 31.792 164.111 31.792C171.599 31.792 178.367 33.472 184.415 36.832C190.463 40.096 195.215 44.8 198.671 50.944C202.223 57.088 203.999 64.24 203.999 72.4C203.999 80.56 202.175 87.76 198.527 94C194.975 100.144 190.127 104.896 183.983 108.256C177.839 111.616 171.023 113.296 163.535 113.296ZM163.535 101.776C168.239 101.776 172.655 100.672 176.783 98.464C180.911 96.256 184.223 92.944 186.719 88.528C189.311 84.112 190.607 78.736 190.607 72.4C190.607 66.064 189.359 60.688 186.863 56.272C184.367 51.856 181.103 48.592 177.071 46.48C173.039 44.272 168.671 43.168 163.967 43.168C159.167 43.168 154.751 44.272 150.719 46.48C146.783 48.592 143.615 51.856 141.215 56.272C138.815 60.688 137.615 66.064 137.615 72.4C137.615 78.832 138.767 84.256 141.071 88.672C143.471 93.088 146.639 96.4 150.575 98.608C154.511 100.72 158.831 101.776 163.535 101.776Z" stroke="white" stroke-width="10" stroke-linecap="round" stroke-linejoin="round" mask="url(#path-1-outside-1)" class="UxshjAwi_14"></path>
<path d="M259.677 31.648C269.277 31.648 277.053 34.576 283.005 40.432C288.957 46.192 291.933 54.544 291.933 65.488V112H278.973V67.36C278.973 59.488 277.005 53.488 273.069 49.36C269.133 45.136 263.757 43.024 256.941 43.024C250.029 43.024 244.509 45.184 240.381 49.504C236.349 53.824 234.333 60.112 234.333 68.368V112H221.229V33.088H234.333V44.32C236.925 40.288 240.429 37.168 244.845 34.96C249.357 32.752 254.301 31.648 259.677 31.648Z" stroke="white" stroke-width="10" stroke-linecap="round" stroke-linejoin="round" mask="url(#path-1-outside-1)" class="UxshjAwi_15"></path>
<path d="M308.442 72.256C308.442 64.192 310.074 57.136 313.338 51.088C316.602 44.944 321.066 40.192 326.73 36.832C332.49 33.472 338.874 31.792 345.882 31.792C352.794 31.792 358.794 33.28 363.882 36.256C368.97 39.232 372.762 42.976 375.258 47.488V33.088H388.506V112H375.258V97.312C372.666 101.92 368.778 105.76 363.594 108.832C358.506 111.808 352.554 113.296 345.738 113.296C338.73 113.296 332.394 111.568 326.73 108.112C321.066 104.656 316.602 99.808 313.338 93.568C310.074 87.328 308.442 80.224 308.442 72.256ZM375.258 72.4C375.258 66.448 374.058 61.264 371.658 56.848C369.258 52.432 365.994 49.072 361.866 46.768C357.834 44.368 353.37 43.168 348.474 43.168C343.578 43.168 339.114 44.32 335.082 46.624C331.05 48.928 327.834 52.288 325.434 56.704C323.034 61.12 321.834 66.304 321.834 72.256C321.834 78.304 323.034 83.584 325.434 88.096C327.834 92.512 331.05 95.92 335.082 98.32C339.114 100.624 343.578 101.776 348.474 101.776C353.37 101.776 357.834 100.624 361.866 98.32C365.994 95.92 369.258 92.512 371.658 88.096C374.058 83.584 375.258 78.352 375.258 72.4Z" stroke="white" stroke-width="10" stroke-linecap="round" stroke-linejoin="round" mask="url(#path-1-outside-1)" class="UxshjAwi_16"></path>
<path d="M423.755 45.904C426.059 41.392 429.323 37.888 433.547 35.392C437.867 32.896 443.098 31.648 449.242 31.648V45.184H445.786C431.098 45.184 423.755 53.152 423.755 69.088V112H410.651V33.088H423.755V45.904Z" stroke="white" stroke-width="10" stroke-linecap="round" stroke-linejoin="round" mask="url(#path-1-outside-1)" class="UxshjAwi_17"></path>
<path d="M508.433 112L477.473 77.152V112H464.369V5.44H477.473V68.08L507.857 33.088H526.145L488.993 72.4L526.289 112H508.433Z" stroke="white" stroke-width="10" stroke-linecap="round" stroke-linejoin="round" mask="url(#path-1-outside-1)" class="UxshjAwi_18"></path>
<path d="M540.495 11.632H555.039L541.215 44.32H531.999L540.495 11.632Z" stroke="white" stroke-width="10" stroke-linecap="round" stroke-linejoin="round" mask="url(#path-1-outside-1)" class="UxshjAwi_19"></path>
<path d="M597.915 113.296C591.867 113.296 586.443 112.288 581.643 110.272C576.843 108.16 573.051 105.28 570.267 101.632C567.483 97.888 565.947 93.616 565.659 88.816H579.195C579.579 92.752 581.403 95.968 584.667 98.464C588.027 100.96 592.395 102.208 597.771 102.208C602.763 102.208 606.699 101.104 609.579 98.896C612.459 96.688 613.899 93.904 613.899 90.544C613.899 87.088 612.363 84.544 609.291 82.912C606.219 81.184 601.467 79.504 595.035 77.872C589.179 76.336 584.379 74.8 580.635 73.264C576.987 71.632 573.819 69.28 571.131 66.208C568.539 63.04 567.243 58.912 567.243 53.824C567.243 49.792 568.443 46.096 570.843 42.736C573.243 39.376 576.651 36.736 581.067 34.816C585.483 32.8 590.523 31.792 596.187 31.792C604.923 31.792 611.979 34 617.355 38.416C622.731 42.832 625.611 48.88 625.995 56.56H612.891C612.603 52.432 610.923 49.12 607.851 46.624C604.875 44.128 600.843 42.88 595.755 42.88C591.051 42.88 587.307 43.888 584.523 45.904C581.739 47.92 580.347 50.56 580.347 53.824C580.347 56.416 581.163 58.576 582.795 60.304C584.523 61.936 586.635 63.28 589.131 64.336C591.723 65.296 595.275 66.4 599.787 67.648C605.451 69.184 610.059 70.72 613.611 72.256C617.163 73.696 620.187 75.904 622.683 78.88C625.275 81.856 626.619 85.744 626.715 90.544C626.715 94.864 625.515 98.752 623.115 102.208C620.715 105.664 617.307 108.4 612.891 110.416C608.571 112.336 603.579 113.296 597.915 113.296Z" stroke="white" stroke-width="10" stroke-linecap="round" stroke-linejoin="round" mask="url(#path-1-outside-1)" class="UxshjAwi_20"></path>
<path d="M696.708 47.776C699.396 43.072 703.332 39.232 708.516 36.256C713.7 33.28 719.604 31.792 726.228 31.792C733.332 31.792 739.716 33.472 745.38 36.832C751.044 40.192 755.508 44.944 758.772 51.088C762.036 57.136 763.668 64.192 763.668 72.256C763.668 80.224 762.036 87.328 758.772 93.568C755.508 99.808 750.996 104.656 745.236 108.112C739.572 111.568 733.236 113.296 726.228 113.296C719.412 113.296 713.412 111.808 708.228 108.832C703.14 105.856 699.3 102.064 696.708 97.456V112H683.604V5.44H696.708V47.776ZM750.276 72.256C750.276 66.304 749.076 61.12 746.676 56.704C744.276 52.288 741.012 48.928 736.884 46.624C732.852 44.32 728.388 43.168 723.492 43.168C718.692 43.168 714.228 44.368 710.1 46.768C706.068 49.072 702.804 52.48 700.308 56.992C697.908 61.408 696.708 66.544 696.708 72.4C696.708 78.352 697.908 83.584 700.308 88.096C702.804 92.512 706.068 95.92 710.1 98.32C714.228 100.624 718.692 101.776 723.492 101.776C728.388 101.776 732.852 100.624 736.884 98.32C741.012 95.92 744.276 92.512 746.676 88.096C749.076 83.584 750.276 78.304 750.276 72.256Z" stroke="white" stroke-width="10" stroke-linecap="round" stroke-linejoin="round" mask="url(#path-1-outside-1)" class="UxshjAwi_21"></path>
<path d="M794.02 5.44V112H780.916V5.44H794.02Z" stroke="white" stroke-width="10" stroke-linecap="round" stroke-linejoin="round" mask="url(#path-1-outside-1)" class="UxshjAwi_22"></path>
<path d="M850.77 113.296C843.378 113.296 836.658 111.616 830.61 108.256C824.658 104.896 819.954 100.144 816.498 94C813.138 87.76 811.458 80.56 811.458 72.4C811.458 64.336 813.186 57.232 816.642 51.088C820.194 44.848 824.994 40.096 831.042 36.832C837.09 33.472 843.858 31.792 851.346 31.792C858.834 31.792 865.602 33.472 871.65 36.832C877.698 40.096 882.45 44.8 885.906 50.944C889.458 57.088 891.234 64.24 891.234 72.4C891.234 80.56 889.41 87.76 885.762 94C882.21 100.144 877.362 104.896 871.218 108.256C865.074 111.616 858.258 113.296 850.77 113.296ZM850.77 101.776C855.474 101.776 859.89 100.672 864.018 98.464C868.146 96.256 871.458 92.944 873.954 88.528C876.546 84.112 877.842 78.736 877.842 72.4C877.842 66.064 876.594 60.688 874.098 56.272C871.602 51.856 868.338 48.592 864.306 46.48C860.274 44.272 855.906 43.168 851.202 43.168C846.402 43.168 841.986 44.272 837.954 46.48C834.018 48.592 830.85 51.856 828.45 56.272C826.05 60.688 824.85 66.064 824.85 72.4C824.85 78.832 826.002 84.256 828.306 88.672C830.706 93.088 833.874 96.4 837.81 98.608C841.746 100.72 846.066 101.776 850.77 101.776Z" stroke="white" stroke-width="10" stroke-linecap="round" stroke-linejoin="round" mask="url(#path-1-outside-1)" class="UxshjAwi_23"></path>
<path d="M941.007 31.792C947.823 31.792 953.775 33.28 958.863 36.256C964.047 39.232 967.887 42.976 970.383 47.488V33.088H983.631V113.728C983.631 120.928 982.095 127.312 979.023 132.88C975.951 138.544 971.535 142.96 965.775 146.128C960.111 149.296 953.487 150.88 945.903 150.88C935.535 150.88 926.895 148.432 919.983 143.536C913.071 138.64 908.991 131.968 907.743 123.52H920.703C922.143 128.32 925.119 132.16 929.631 135.04C934.143 138.016 939.567 139.504 945.903 139.504C953.103 139.504 958.959 137.248 963.471 132.736C968.079 128.224 970.383 121.888 970.383 113.728V97.168C967.791 101.776 963.951 105.616 958.863 108.688C953.775 111.76 947.823 113.296 941.007 113.296C933.999 113.296 927.615 111.568 921.855 108.112C916.191 104.656 911.727 99.808 908.463 93.568C905.199 87.328 903.567 80.224 903.567 72.256C903.567 64.192 905.199 57.136 908.463 51.088C911.727 44.944 916.191 40.192 921.855 36.832C927.615 33.472 933.999 31.792 941.007 31.792ZM970.383 72.4C970.383 66.448 969.183 61.264 966.783 56.848C964.383 52.432 961.119 49.072 956.991 46.768C952.959 44.368 948.495 43.168 943.599 43.168C938.703 43.168 934.239 44.32 930.207 46.624C926.175 48.928 922.959 52.288 920.559 56.704C918.159 61.12 916.959 66.304 916.959 72.256C916.959 78.304 918.159 83.584 920.559 88.096C922.959 92.512 926.175 95.92 930.207 98.32C934.239 100.624 938.703 101.776 943.599 101.776C948.495 101.776 952.959 100.624 956.991 98.32C961.119 95.92 964.383 92.512 966.783 88.096C969.183 83.584 970.383 78.352 970.383 72.4Z" stroke="white" stroke-width="10" stroke-linecap="round" stroke-linejoin="round" mask="url(#path-1-outside-1)" class="UxshjAwi_24"></path>
<style data-made-with="vivus-instant">.UxshjAwi_0{stroke-dasharray:2290 2292;stroke-dashoffset:2291;animation:UxshjAwi_draw_0 34200ms ease-in-out 0ms infinite,UxshjAwi_fade 34200ms linear 0ms infinite;}.UxshjAwi_1{stroke-dasharray:755 757;stroke-dashoffset:756;animation:UxshjAwi_draw_1 34200ms ease-in-out 0ms infinite,UxshjAwi_fade 34200ms linear 0ms infinite;}.UxshjAwi_2{stroke-dasharray:434 436;stroke-dashoffset:435;animation:UxshjAwi_draw_2 34200ms ease-in-out 0ms infinite,UxshjAwi_fade 34200ms linear 0ms infinite;}.UxshjAwi_3{stroke-dasharray:423 425;stroke-dashoffset:424;animation:UxshjAwi_draw_3 34200ms ease-in-out 0ms infinite,UxshjAwi_fade 34200ms linear 0ms infinite;}.UxshjAwi_4{stroke-dasharray:507 509;stroke-dashoffset:508;animation:UxshjAwi_draw_4 34200ms ease-in-out 0ms infinite,UxshjAwi_fade 34200ms linear 0ms infinite;}.UxshjAwi_5{stroke-dasharray:247 249;stroke-dashoffset:248;animation:UxshjAwi_draw_5 34200ms ease-in-out 0ms infinite,UxshjAwi_fade 34200ms linear 0ms infinite;}.UxshjAwi_6{stroke-dasharray:468 470;stroke-dashoffset:469;animation:UxshjAwi_draw_6 34200ms ease-in-out 0ms infinite,UxshjAwi_fade 34200ms linear 0ms infinite;}.UxshjAwi_7{stroke-dasharray:94 96;stroke-dashoffset:95;animation:UxshjAwi_draw_7 34200ms ease-in-out 0ms infinite,UxshjAwi_fade 34200ms linear 0ms infinite;}.UxshjAwi_8{stroke-dasharray:419 421;stroke-dashoffset:420;animation:UxshjAwi_draw_8 34200ms ease-in-out 0ms infinite,UxshjAwi_fade 34200ms linear 0ms infinite;}.UxshjAwi_9{stroke-dasharray:563 565;stroke-dashoffset:564;animation:UxshjAwi_draw_9 34200ms ease-in-out 0ms infinite,UxshjAwi_fade 34200ms linear 0ms infinite;}.UxshjAwi_10{stroke-dasharray:240 242;stroke-dashoffset:241;animation:UxshjAwi_draw_10 34200ms ease-in-out 0ms infinite,UxshjAwi_fade 34200ms linear 0ms infinite;}.UxshjAwi_11{stroke-dasharray:434 436;stroke-dashoffset:435;animation:UxshjAwi_draw_11 34200ms ease-in-out 0ms infinite,UxshjAwi_fade 34200ms linear 0ms infinite;}.UxshjAwi_12{stroke-dasharray:694 696;stroke-dashoffset:695;animation:UxshjAwi_draw_12 34200ms ease-in-out 0ms infinite,UxshjAwi_fade 34200ms linear 0ms infinite;}.UxshjAwi_13{stroke-dasharray:755 757;stroke-dashoffset:756;animation:UxshjAwi_draw_13 34200ms ease-in-out 0ms infinite,UxshjAwi_fade 34200ms linear 0ms infinite;}.UxshjAwi_14{stroke-dasharray:434 436;stroke-dashoffset:435;animation:UxshjAwi_draw_14 34200ms ease-in-out 0ms infinite,UxshjAwi_fade 34200ms linear 0ms infinite;}.UxshjAwi_15{stroke-dasharray:423 425;stroke-dashoffset:424;animation:UxshjAwi_draw_15 34200ms ease-in-out 0ms infinite,UxshjAwi_fade 34200ms linear 0ms infinite;}.UxshjAwi_16{stroke-dasharray:507 509;stroke-dashoffset:508;animation:UxshjAwi_draw_16 34200ms ease-in-out 0ms infinite,UxshjAwi_fade 34200ms linear 0ms infinite;}.UxshjAwi_17{stroke-dasharray:247 249;stroke-dashoffset:248;animation:UxshjAwi_draw_17 34200ms ease-in-out 0ms infinite,UxshjAwi_fade 34200ms linear 0ms infinite;}.UxshjAwi_18{stroke-dasharray:468 470;stroke-dashoffset:469;animation:UxshjAwi_draw_18 34200ms ease-in-out 0ms infinite,UxshjAwi_fade 34200ms linear 0ms infinite;}.UxshjAwi_19{stroke-dasharray:94 96;stroke-dashoffset:95;animation:UxshjAwi_draw_19 34200ms ease-in-out 0ms infinite,UxshjAwi_fade 34200ms linear 0ms infinite;}.UxshjAwi_20{stroke-dasharray:419 421;stroke-dashoffset:420;animation:UxshjAwi_draw_20 34200ms ease-in-out 0ms infinite,UxshjAwi_fade 34200ms linear 0ms infinite;}.UxshjAwi_21{stroke-dasharray:563 565;stroke-dashoffset:564;animation:UxshjAwi_draw_21 34200ms ease-in-out 0ms infinite,UxshjAwi_fade 34200ms linear 0ms infinite;}.UxshjAwi_22{stroke-dasharray:240 242;stroke-dashoffset:241;animation:UxshjAwi_draw_22 34200ms ease-in-out 0ms infinite,UxshjAwi_fade 34200ms linear 0ms infinite;}.UxshjAwi_23{stroke-dasharray:434 436;stroke-dashoffset:435;animation:UxshjAwi_draw_23 34200ms ease-in-out 0ms infinite,UxshjAwi_fade 34200ms linear 0ms infinite;}.UxshjAwi_24{stroke-dasharray:694 696;stroke-dashoffset:695;animation:UxshjAwi_draw_24 34200ms ease-in-out 0ms infinite,UxshjAwi_fade 34200ms linear 0ms infinite;}@keyframes UxshjAwi_draw{100%{stroke-dashoffset:0;}}@keyframes UxshjAwi_fade{0%{stroke-opacity:1;}98.83040935672514%{stroke-opacity:1;}100%{stroke-opacity:0;}}@keyframes UxshjAwi_draw_0{2.3391812865497075%{stroke-dashoffset: 2291}8.187134502923977%{ stroke-dashoffset: 0;}100%{ stroke-dashoffset: 0;}}@keyframes UxshjAwi_draw_1{2.4610136452241713%{stroke-dashoffset: 756}8.30896686159844%{ stroke-dashoffset: 0;}100%{ stroke-dashoffset: 0;}}@keyframes UxshjAwi_draw_2{2.5828460038986356%{stroke-dashoffset: 435}8.430799220272906%{ stroke-dashoffset: 0;}100%{ stroke-dashoffset: 0;}}@keyframes UxshjAwi_draw_3{2.7046783625730995%{stroke-dashoffset: 424}8.552631578947368%{ stroke-dashoffset: 0;}100%{ stroke-dashoffset: 0;}}@keyframes UxshjAwi_draw_4{2.8265107212475633%{stroke-dashoffset: 508}8.674463937621832%{ stroke-dashoffset: 0;}100%{ stroke-dashoffset: 0;}}@keyframes UxshjAwi_draw_5{2.948343079922027%{stroke-dashoffset: 248}8.796296296296296%{ stroke-dashoffset: 0;}100%{ stroke-dashoffset: 0;}}@keyframes UxshjAwi_draw_6{3.070175438596491%{stroke-dashoffset: 469}8.91812865497076%{ stroke-dashoffset: 0;}100%{ stroke-dashoffset: 0;}}@keyframes UxshjAwi_draw_7{3.192007797270955%{stroke-dashoffset: 95}9.039961013645224%{ stroke-dashoffset: 0;}100%{ stroke-dashoffset: 0;}}@keyframes UxshjAwi_draw_8{3.313840155945419%{stroke-dashoffset: 420}9.161793372319687%{ stroke-dashoffset: 0;}100%{ stroke-dashoffset: 0;}}@keyframes UxshjAwi_draw_9{3.435672514619883%{stroke-dashoffset: 564}9.283625730994153%{ stroke-dashoffset: 0;}100%{ stroke-dashoffset: 0;}}@keyframes UxshjAwi_draw_10{3.557504873294347%{stroke-dashoffset: 241}9.405458089668615%{ stroke-dashoffset: 0;}100%{ stroke-dashoffset: 0;}}@keyframes UxshjAwi_draw_11{3.6793372319688107%{stroke-dashoffset: 435}9.527290448343079%{ stroke-dashoffset: 0;}100%{ stroke-dashoffset: 0;}}@keyframes UxshjAwi_draw_12{3.8011695906432745%{stroke-dashoffset: 695}9.649122807017543%{ stroke-dashoffset: 0;}100%{ stroke-dashoffset: 0;}}@keyframes UxshjAwi_draw_13{3.9230019493177384%{stroke-dashoffset: 756}9.770955165692008%{ stroke-dashoffset: 0;}100%{ stroke-dashoffset: 0;}}@keyframes UxshjAwi_draw_14{4.044834307992202%{stroke-dashoffset: 435}9.89278752436647%{ stroke-dashoffset: 0;}100%{ stroke-dashoffset: 0;}}@keyframes UxshjAwi_draw_15{4.166666666666666%{stroke-dashoffset: 424}10.014619883040936%{ stroke-dashoffset: 0;}100%{ stroke-dashoffset: 0;}}@keyframes UxshjAwi_draw_16{4.28849902534113%{stroke-dashoffset: 508}10.1364522417154%{ stroke-dashoffset: 0;}100%{ stroke-dashoffset: 0;}}@keyframes UxshjAwi_draw_17{4.410331384015595%{stroke-dashoffset: 248}10.258284600389862%{ stroke-dashoffset: 0;}100%{ stroke-dashoffset: 0;}}@keyframes UxshjAwi_draw_18{4.5321637426900585%{stroke-dashoffset: 469}10.380116959064328%{ stroke-dashoffset: 0;}100%{ stroke-dashoffset: 0;}}@keyframes UxshjAwi_draw_19{4.653996101364522%{stroke-dashoffset: 95}10.501949317738791%{ stroke-dashoffset: 0;}100%{ stroke-dashoffset: 0;}}@keyframes UxshjAwi_draw_20{4.775828460038986%{stroke-dashoffset: 420}10.623781676413255%{ stroke-dashoffset: 0;}100%{ stroke-dashoffset: 0;}}@keyframes UxshjAwi_draw_21{4.89766081871345%{stroke-dashoffset: 564}10.74561403508772%{ stroke-dashoffset: 0;}100%{ stroke-dashoffset: 0;}}@keyframes UxshjAwi_draw_22{5.019493177387914%{stroke-dashoffset: 241}10.867446393762183%{ stroke-dashoffset: 0;}100%{ stroke-dashoffset: 0;}}@keyframes UxshjAwi_draw_23{5.141325536062378%{stroke-dashoffset: 435}10.989278752436645%{ stroke-dashoffset: 0;}100%{ stroke-dashoffset: 0;}}@keyframes UxshjAwi_draw_24{5.263157894736842%{stroke-dashoffset: 695}11.11111111111111%{ stroke-dashoffset: 0;}100%{ stroke-dashoffset: 0;}}</style></svg>
