<svg width="365" height="82" viewBox="0 0 365 82" fill="none" xmlns="http://www.w3.org/2000/svg">
<mask id="path-1-outside-1" maskUnits="userSpaceOnUse" x="0" y="0" width="365" height="82" fill="black">
<rect fill="white" width="365" height="82"/>
<path d="M72.872 9.608V76.04H64.136V26.504L42.056 76.04H35.912L13.736 26.408V76.04H5V9.608H14.408L38.984 64.52L63.56 9.608H72.872Z"/>
<path d="M110.632 76.904C105.703 76.904 101.224 75.784 97.1915 73.544C93.2235 71.304 90.0875 68.136 87.7835 64.04C85.5435 59.88 84.4235 55.08 84.4235 49.64C84.4235 44.264 85.5755 39.528 87.8795 35.432C90.2475 31.272 93.4475 28.104 97.4795 25.928C101.512 23.688 106.024 22.568 111.016 22.568C116.008 22.568 120.52 23.688 124.552 25.928C128.584 28.104 131.751 31.24 134.055 35.336C136.423 39.432 137.607 44.2 137.607 49.64C137.607 55.08 136.392 59.88 133.96 64.04C131.592 68.136 128.36 71.304 124.264 73.544C120.168 75.784 115.624 76.904 110.632 76.904ZM110.632 69.224C113.767 69.224 116.712 68.488 119.464 67.016C122.216 65.544 124.424 63.336 126.088 60.392C127.816 57.448 128.68 53.864 128.68 49.64C128.68 45.416 127.848 41.832 126.184 38.888C124.52 35.944 122.344 33.768 119.656 32.36C116.968 30.888 114.056 30.152 110.92 30.152C107.72 30.152 104.776 30.888 102.088 32.36C99.4635 33.768 97.3515 35.944 95.7515 38.888C94.1515 41.832 93.3515 45.416 93.3515 49.64C93.3515 53.928 94.1195 57.544 95.6555 60.488C97.2555 63.432 99.3675 65.64 101.992 67.112C104.616 68.52 107.496 69.224 110.632 69.224Z"/>
<path d="M174.726 22.472C181.126 22.472 186.31 24.424 190.278 28.328C194.246 32.168 196.23 37.736 196.23 45.032V76.04H187.59V46.28C187.59 41.032 186.278 37.032 183.654 34.28C181.03 31.464 177.446 30.056 172.902 30.056C168.294 30.056 164.614 31.496 161.862 34.376C159.174 37.256 157.83 41.448 157.83 46.952V76.04H149.094V23.432H157.83V30.92C159.558 28.232 161.894 26.152 164.838 24.68C167.846 23.208 171.142 22.472 174.726 22.472Z"/>
<path d="M207.236 49.544C207.236 44.168 208.324 39.464 210.5 35.432C212.676 31.336 215.652 28.168 219.428 25.928C223.268 23.688 227.524 22.568 232.196 22.568C236.804 22.568 240.804 23.56 244.196 25.544C247.588 27.528 250.116 30.024 251.78 33.032V23.432H260.612V76.04H251.78V66.248C250.052 69.32 247.46 71.88 244.004 73.928C240.612 75.912 236.644 76.904 232.1 76.904C227.428 76.904 223.204 75.752 219.428 73.448C215.652 71.144 212.676 67.912 210.5 63.752C208.324 59.592 207.236 54.856 207.236 49.544ZM251.78 49.64C251.78 45.672 250.98 42.216 249.38 39.272C247.78 36.328 245.604 34.088 242.852 32.552C240.164 30.952 237.188 30.152 233.924 30.152C230.66 30.152 227.684 30.92 224.996 32.456C222.308 33.992 220.164 36.232 218.564 39.176C216.964 42.12 216.164 45.576 216.164 49.544C216.164 53.576 216.964 57.096 218.564 60.104C220.164 63.048 222.308 65.32 224.996 66.92C227.684 68.456 230.66 69.224 233.924 69.224C237.188 69.224 240.164 68.456 242.852 66.92C245.604 65.32 247.78 63.048 249.38 60.104C250.98 57.096 251.78 53.608 251.78 49.64Z"/>
<path d="M284.111 31.976C285.647 28.968 287.823 26.632 290.639 24.968C293.519 23.304 297.007 22.472 301.103 22.472V31.496H298.799C289.007 31.496 284.111 36.808 284.111 47.432V76.04H275.375V23.432H284.111V31.976Z"/>
<path d="M340.564 76.04L319.923 52.808V76.04H311.188V5H319.923V46.76L340.18 23.432H352.371L327.604 49.64L352.467 76.04H340.564Z"/>
</mask>
<path d="M72.872 9.608V76.04H64.136V26.504L42.056 76.04H35.912L13.736 26.408V76.04H5V9.608H14.408L38.984 64.52L63.56 9.608H72.872Z" stroke="white" stroke-width="10" stroke-linecap="round" mask="url(#path-1-outside-1)"/>
<path d="M110.632 76.904C105.703 76.904 101.224 75.784 97.1915 73.544C93.2235 71.304 90.0875 68.136 87.7835 64.04C85.5435 59.88 84.4235 55.08 84.4235 49.64C84.4235 44.264 85.5755 39.528 87.8795 35.432C90.2475 31.272 93.4475 28.104 97.4795 25.928C101.512 23.688 106.024 22.568 111.016 22.568C116.008 22.568 120.52 23.688 124.552 25.928C128.584 28.104 131.751 31.24 134.055 35.336C136.423 39.432 137.607 44.2 137.607 49.64C137.607 55.08 136.392 59.88 133.96 64.04C131.592 68.136 128.36 71.304 124.264 73.544C120.168 75.784 115.624 76.904 110.632 76.904ZM110.632 69.224C113.767 69.224 116.712 68.488 119.464 67.016C122.216 65.544 124.424 63.336 126.088 60.392C127.816 57.448 128.68 53.864 128.68 49.64C128.68 45.416 127.848 41.832 126.184 38.888C124.52 35.944 122.344 33.768 119.656 32.36C116.968 30.888 114.056 30.152 110.92 30.152C107.72 30.152 104.776 30.888 102.088 32.36C99.4635 33.768 97.3515 35.944 95.7515 38.888C94.1515 41.832 93.3515 45.416 93.3515 49.64C93.3515 53.928 94.1195 57.544 95.6555 60.488C97.2555 63.432 99.3675 65.64 101.992 67.112C104.616 68.52 107.496 69.224 110.632 69.224Z" stroke="white" stroke-width="10" stroke-linecap="round" mask="url(#path-1-outside-1)"/>
<path d="M174.726 22.472C181.126 22.472 186.31 24.424 190.278 28.328C194.246 32.168 196.23 37.736 196.23 45.032V76.04H187.59V46.28C187.59 41.032 186.278 37.032 183.654 34.28C181.03 31.464 177.446 30.056 172.902 30.056C168.294 30.056 164.614 31.496 161.862 34.376C159.174 37.256 157.83 41.448 157.83 46.952V76.04H149.094V23.432H157.83V30.92C159.558 28.232 161.894 26.152 164.838 24.68C167.846 23.208 171.142 22.472 174.726 22.472Z" stroke="white" stroke-width="10" stroke-linecap="round" mask="url(#path-1-outside-1)"/>
<path d="M207.236 49.544C207.236 44.168 208.324 39.464 210.5 35.432C212.676 31.336 215.652 28.168 219.428 25.928C223.268 23.688 227.524 22.568 232.196 22.568C236.804 22.568 240.804 23.56 244.196 25.544C247.588 27.528 250.116 30.024 251.78 33.032V23.432H260.612V76.04H251.78V66.248C250.052 69.32 247.46 71.88 244.004 73.928C240.612 75.912 236.644 76.904 232.1 76.904C227.428 76.904 223.204 75.752 219.428 73.448C215.652 71.144 212.676 67.912 210.5 63.752C208.324 59.592 207.236 54.856 207.236 49.544ZM251.78 49.64C251.78 45.672 250.98 42.216 249.38 39.272C247.78 36.328 245.604 34.088 242.852 32.552C240.164 30.952 237.188 30.152 233.924 30.152C230.66 30.152 227.684 30.92 224.996 32.456C222.308 33.992 220.164 36.232 218.564 39.176C216.964 42.12 216.164 45.576 216.164 49.544C216.164 53.576 216.964 57.096 218.564 60.104C220.164 63.048 222.308 65.32 224.996 66.92C227.684 68.456 230.66 69.224 233.924 69.224C237.188 69.224 240.164 68.456 242.852 66.92C245.604 65.32 247.78 63.048 249.38 60.104C250.98 57.096 251.78 53.608 251.78 49.64Z" stroke="white" stroke-width="10" stroke-linecap="round" mask="url(#path-1-outside-1)"/>
<path d="M284.111 31.976C285.647 28.968 287.823 26.632 290.639 24.968C293.519 23.304 297.007 22.472 301.103 22.472V31.496H298.799C289.007 31.496 284.111 36.808 284.111 47.432V76.04H275.375V23.432H284.111V31.976Z" stroke="white" stroke-width="10" stroke-linecap="round" mask="url(#path-1-outside-1)"/>
<path d="M340.564 76.04L319.923 52.808V76.04H311.188V5H319.923V46.76L340.18 23.432H352.371L327.604 49.64L352.467 76.04H340.564Z" stroke="white" stroke-width="10" stroke-linecap="round" mask="url(#path-1-outside-1)"/>
</svg>
